<svg width="28" height="32" viewBox="0 0 28 32" fill="none" xmlns="http://www.w3.org/2000/svg">
<path d="M25.7658 4.01186C25.6683 4.08999 25.5668 4.16403 25.4731 4.24215C25.3289 4.37091 25.1454 4.43733 24.9619 4.43733C24.7433 4.43733 24.5288 4.34368 24.3726 4.16811C24.0917 3.84418 24.1227 3.34846 24.4507 3.06756C24.5912 2.94261 24.7474 2.82964 24.8996 2.71232C24.1346 1.69372 23.2255 0.776651 22.1914 0H5.80888C4.77091 0.776651 3.86555 1.69372 3.10068 2.71232C3.25284 2.82556 3.40501 2.94261 3.54955 3.06756C3.87348 3.34848 3.90859 3.84038 3.62768 4.16811C3.4717 4.34368 3.25311 4.43733 3.03453 4.43733C2.85514 4.43733 2.67167 4.37091 2.52332 4.24215C2.42967 4.16403 2.33223 4.08999 2.2345 4.01186C1.01284 6.08391 0.341553 8.46849 0.341553 10.9268C0.341553 14.0213 1.35611 16.9443 3.2722 19.3755C3.30732 19.4186 3.33454 19.4654 3.35795 19.5122H6.3863C5.91809 18.9931 5.47306 18.4233 5.05167 17.803C4.80967 17.4478 4.90331 16.9599 5.25855 16.7183C5.6176 16.4763 6.10161 16.5699 6.34329 16.929C6.44482 17.0773 6.55017 17.2216 6.65551 17.3661C8.68073 20.137 11.2719 21.6589 13.9997 21.6589C16.7276 21.6589 19.3187 20.137 21.3439 17.3661C21.4493 17.2219 21.5508 17.0773 21.6562 16.929C21.8982 16.5699 22.3819 16.4763 22.7371 16.7183C23.0962 16.9603 23.1898 17.4481 22.9478 17.803C22.5264 18.4234 22.0776 18.9931 21.6094 19.5122H24.6415C24.665 19.4654 24.6922 19.4185 24.7273 19.3755C26.6439 16.9444 27.6584 14.0217 27.6584 10.9268C27.6584 8.46849 26.9833 6.08391 25.7658 4.01186ZM4.6028 5.39332C4.98145 5.19052 5.45346 5.33479 5.66036 5.71344C5.79292 5.96333 5.91405 6.22084 6.02729 6.48215C6.19497 6.88012 6.00769 7.33692 5.61353 7.50458C5.512 7.54759 5.41073 7.56692 5.3092 7.56692C5.00487 7.56692 4.71605 7.38753 4.58732 7.09082C4.49749 6.87632 4.39215 6.65774 4.28299 6.45085C4.07992 6.07221 4.22035 5.5961 4.6028 5.39332ZM6.02321 13.8769L5.77332 14.6184C5.66417 14.9424 5.35956 15.1492 5.03563 15.1492C4.94988 15.1492 4.86795 15.1337 4.78193 15.1062C4.37606 14.9696 4.15748 14.5248 4.29413 14.1151L4.54401 13.3774C4.68447 12.9677 5.12546 12.7491 5.53516 12.8896C5.94129 13.0262 6.16367 13.471 6.02321 13.8769ZM6.7568 10.6379C6.73339 11.0555 6.38986 11.3756 5.97638 11.3756H5.93337C5.50409 11.3522 5.17637 10.9852 5.19979 10.5559C5.20768 10.4155 5.21149 10.275 5.21149 10.1346C5.21149 10.0371 5.20768 9.94346 5.2036 9.84574C5.18808 9.41265 5.52372 9.05362 5.953 9.03404C6.38228 9.01446 6.74923 9.35416 6.7647 9.78727C6.76852 9.90051 6.7726 10.0176 6.7726 10.1346C6.7726 10.3023 6.76469 10.4702 6.7568 10.6379ZM14 18.3417C13.5669 18.3417 13.2196 17.9905 13.2196 17.5613C13.2196 17.491 13.2313 17.4287 13.2468 17.3661C13.3325 17.0305 13.6371 16.7808 14 16.7808C14.3629 16.7808 14.6672 17.0307 14.7532 17.3661C14.7688 17.4284 14.7805 17.4908 14.7805 17.561C14.7805 17.9903 14.4293 18.3417 14.0001 18.3417L14 18.3417ZM21.2431 10.6379C21.2314 10.4702 21.2276 10.3023 21.2276 10.1346C21.2276 10.0175 21.2314 9.90047 21.2355 9.78341C21.251 9.35413 21.6063 9.0223 22.0472 9.03401C22.4765 9.05361 22.8122 9.41647 22.7966 9.84571C22.7928 9.94316 22.7887 10.0368 22.7887 10.1345C22.7887 10.275 22.7925 10.4154 22.8004 10.5559C22.8238 10.9852 22.4961 11.3521 22.0627 11.3756H22.0197C21.6098 11.3756 21.2625 11.0555 21.2431 10.6379ZM23.2136 15.1062C23.1317 15.1334 23.046 15.1492 22.9638 15.1492C22.6398 15.1492 22.3355 14.9424 22.2261 14.6184L21.9762 13.8769C21.8357 13.471 22.0543 13.0262 22.464 12.8896C22.8698 12.7491 23.3146 12.9677 23.4551 13.3774L23.705 14.1189C23.8419 14.5248 23.6236 14.9696 23.2136 15.1062ZM23.7172 6.45052C23.604 6.65741 23.5027 6.87599 23.4088 7.09049C23.2839 7.3872 22.9951 7.56659 22.6907 7.56659C22.5892 7.56659 22.4879 7.54699 22.3864 7.50425C21.9884 7.33657 21.8049 6.87599 21.9726 6.48182C22.0818 6.22022 22.2067 5.96271 22.3396 5.71311C22.5424 5.33447 23.0146 5.19019 23.3971 5.39299C23.7758 5.59579 23.92 6.07186 23.7172 6.45052Z" fill="#097FD9"/>
<path d="M14 23.2194C11.8848 23.2194 9.85551 22.4741 8.05266 21.073H3.38913C3.38532 21.8107 3.43977 22.5443 3.5609 23.2545L3.57641 23.3365C3.58022 23.3637 3.58812 23.3912 3.59193 23.4184C5.5938 23.4301 7.27574 23.7385 8.67685 24.195C11.4787 25.1083 13.1607 26.6185 13.9997 27.5862C14.8386 26.6185 16.5206 25.1083 19.3225 24.195C20.7235 23.7385 22.4053 23.4301 24.4074 23.4184C24.4112 23.3912 24.4153 23.3637 24.4229 23.3403L24.4347 23.2545C24.5596 22.5443 24.614 21.8107 24.6102 21.073H19.9434C18.1444 22.4738 16.115 23.2194 14 23.2194Z" fill="#097FD9"/>
<path d="M14.7805 29.112V31.9999H21.5199C21.7267 31.4536 21.9453 30.9034 22.1677 30.3454C22.8662 28.5931 23.5764 26.7903 24.0566 24.9834C17.8945 25.1432 15.311 28.3471 14.7807 29.112H14.7805Z" fill="#097FD9"/>
<path d="M3.94357 24.9832C4.42348 26.7901 5.13367 28.593 5.83241 30.349C6.051 30.9032 6.26958 31.4571 6.48028 31.9997L13.2197 32V29.1121C12.6927 28.351 10.1094 25.1433 3.94378 24.9832L3.94357 24.9832Z" fill="#097FD9"/>
</svg>
